HIERARCHY
ROOT Hips
{
  OFFSET 0.0 0.0 0.0
  CHANNELS 6 Xposition Yposition Zposition Zrotation Xrotation Yrotation
  JOINT LeftHipJoint
  {
    OFFSET 0.1 0.0 0.0
    CHANNELS 3 Zrotation Xrotation Yrotation
    JOINT LeftUpLeg
    {
      OFFSET 117.05941048100834 0.0 0.0
      CHANNELS 3 Zrotation Xrotation Yrotation
      JOINT LeftLeg
      {
        OFFSET 0.0 0.0 -421.52566652508733
        CHANNELS 3 Zrotation Xrotation Yrotation
        JOINT LeftFoot
        {
          OFFSET 0.0 0.0 -423.82983868275653
          CHANNELS 3 Zrotation Xrotation Yrotation
          End Site
          {
            OFFSET 0.0 -0.1 0.0
          }
        }
      }
    }
  }
  JOINT LowerBack
  {
    OFFSET 0.0 0.0 0.1
    CHANNELS 3 Zrotation Xrotation Yrotation
    JOINT Spine
    {
      OFFSET 0.0 0.0 222.29863299394984
      CHANNELS 3 Zrotation Xrotation Yrotation
      JOINT Spine1
      {
        OFFSET 0.0 0.0 252.16708715328528
        CHANNELS 3 Zrotation Xrotation Yrotation
        JOINT LeftShoulder
        {
          OFFSET 0.1 0.0 0.0
          CHANNELS 3 Zrotation Xrotation Yrotation
          JOINT LeftArm
          {
            OFFSET 143.16094457568556 0.0 0.0
            CHANNELS 3 Zrotation Xrotation Yrotation
            JOINT LeftForeArm
            {
              OFFSET 263.51762200910946 0.0 0.0
              CHANNELS 3 Zrotation Xrotation Yrotation
              JOINT LeftHand
              {
                OFFSET 238.81480451405196 0.0 0.0
                CHANNELS 3 Zrotation Xrotation Yrotation
                End Site
                {
                  OFFSET 0.1 0.0 0.0
                }
              }
            }
          }
        }
        JOINT Neck
        {
          OFFSET 0.0 0.0 0.1
          CHANNELS 3 Zrotation Xrotation Yrotation
          JOINT Neck1
          {
            OFFSET 0.0 0.0 106.35494526349558
            CHANNELS 3 Zrotation Xrotation Yrotation
            End Site
            {
              OFFSET 0.0 0.0 112.916620037171
            }
          }
        }
        JOINT RightShoulder
        {
          OFFSET -0.1 0.0 0.0
          CHANNELS 3 Zrotation Xrotation Yrotation
          JOINT RightArm
          {
            OFFSET -143.16094457568556 0.0 0.0
            CHANNELS 3 Zrotation Xrotation Yrotation
            JOINT RightForeArm
            {
              OFFSET -263.51762200910946 0.0 0.0
              CHANNELS 3 Zrotation Xrotation Yrotation
              JOINT RightHand
              {
                OFFSET -238.81480451405196 0.0 0.0
                CHANNELS 3 Zrotation Xrotation Yrotation
                End Site
                {
                  OFFSET -0.1 0.0 0.0
                }
              }
            }
          }
        }
      }
    }
  }
  JOINT RightHipJoint
  {
    OFFSET -0.1 0.0 0.0
    CHANNELS 3 Zrotation Xrotation Yrotation
    JOINT RightUpLeg
    {
      OFFSET -117.05941048100834 0.0 0.0
      CHANNELS 3 Zrotation Xrotation Yrotation
      JOINT RightLeg
      {
        OFFSET 0.0 0.0 -421.52566652508733
        CHANNELS 3 Zrotation Xrotation Yrotation
        JOINT RightFoot
        {
          OFFSET 0.0 0.0 -423.82983868275653
          CHANNELS 3 Zrotation Xrotation Yrotation
          End Site
          {
            OFFSET 0.0 -0.1 0.0
          }
        }
      }
    }
  }
}
MOTION
Frames: 6
Frame Time: 0.03333333333333333
2500.0 5250.0 860.1061683281317 44.98325921077848 -9.701471230354315 -1.7058441874167811 6.361109362927033e-15 3.9756933518293955e-16 -2.2069531490250793e-32 -0.40550651085289163 4.702850102201557 -0.6411054263677889 -1.262075452238562 12.614863931605042 -2.043063720643787 0.0 0.0 3.975693351829396e-16 6.361109362927033e-15 3.9756933518293955e-16 -2.2069531490250793e-32 -0.412078671307164 4.735747219313715 2.4954840652757495 1.4582780188814883 -9.887835754611695e-16 4.101853470229141e-16 0.0 0.0 3.975693351829396e-16 -25.642895355866226 13.732788662434421 76.1950182679541 -39.11579593114079 -4.190603476004843e-16 -1.0696676410291064e-14 1.5902773407317588e-15 7.951386703658794e-16 -1.1927080055488192e-15 0.0 0.0 3.975693351829396e-16 9.789712013216295 12.558292944808825 1.2918423619890487 0.0 0.0 3.975693351829396e-16 33.48102435278842 20.593899444664395 -78.16439640227694 66.76076144300247 -1.2311456368618835e-14 -7.123665048216723e-15 0.0 0.0 0.0 6.361109362927033e-15 3.9756933518293955e-16 -2.2069531490250793e-32 -0.9409873167425435 10.672111977218286 0.6204365980174085 -0.8267423809020612 10.555592189732598 1.0436693178502865 0.0 0.0 0.0
2500.0 5250.0 860.1061683281317 45.13084206494181 -9.450450410452033 -2.0029568002177367 0.0 0.0 -7.951386703658792e-16 -0.4333947387953395 4.6179669848251255 -0.25367145684552606 -1.2842338469515688 12.731558178757004 -2.0006382087616306 0.0 0.0 -3.975693351829396e-16 0.0 0.0 -7.951386703658792e-16 -0.4325572544912483 4.572666933537606 2.8379392381647226 0.8139274804935225 2.4565071204253653e-16 -3.9932421546822936e-16 0.0 0.0 0.0 -27.810074793331083 14.129224666619823 75.2047588024264 -36.75763313174702 -1.331874501822293e-15 4.00871024991295e-15 -1.5902773407317582e-15 6.069121159818968e-32 -4.373262687012335e-15 0.0 0.0 0.0 10.938679798378574 12.57298789546343 1.3397133018778091 0.0 0.0 0.0 34.50724317986428 21.25714651657638 -79.12296883599765 66.60150266140894 -1.8241523289495586e-15 8.809080141253335e-15 0.0 0.0 0.0 0.0 0.0 -7.951386703658792e-16 -1.0103710417859733 10.547101077091408 1.1155388539707605 -0.7944166751609404 10.286689674664467 1.1550404189595525 -6.3611093629270335e-15 -1.5902773407317584e-15 -7.951386703658792e-16
2500.0 5250.0 860.1061683281317 44.837671785736205 -9.728246845195875 -1.9444541055583724 0.0 0.0 -7.951386703658792e-16 -0.5215178398129597 5.290647888720879 -0.32054477108654045 -1.3561648564081423 12.695421262746091 -1.8301105464450687 0.0 0.0 -3.975693351829396e-16 0.0 0.0 -7.951386703658792e-16 -0.42668592764613206 4.303759260213164 3.306937764657253 1.3029179235887578 -9.351255227812284e-16 8.058230030976681e-16 0.0 0.0 3.975693351829396e-16 -24.019018326703 15.106965927276416 73.95375371739769 -33.56840550406196 2.7884495329153414e-15 8.653117829366537e-15 -1.9878466759146976e-15 1.1724438604195735e-31 -6.758678698109972e-15 0.0 0.0 3.975693351829396e-16 11.130748477655189 13.480194734428107 0.43779744011035276 0.0 0.0 3.975693351829396e-16 35.20352789010165 21.37907924114573 -80.0890980235825 65.91850140608435 -1.0674675687414352e-14 6.921426751544571e-15 0.0 0.0 0.0 0.0 0.0 -7.951386703658792e-16 -1.1040501989207325 10.985578035779943 1.1702615063187525 -0.8393520131312726 10.350737220544994 1.2924097223681628 0.0 0.0 7.951386703658792e-16
2500.0 5250.0 860.1061683281317 44.76320114737262 -9.594373417923752 -2.1128142687883735 6.361109362927033e-15 -8.827812596100317e-32 -1.5902773407317582e-15 -0.527155558755506 5.26034382621671 0.1753888017140676 -1.24891751440379 12.546761967731058 -1.9352007900790604 5.517382872562698e-33 -1.5902773407317584e-15 3.975693351829396e-16 6.361109362927033e-15 -8.827812596100317e-32 -1.5902773407317582e-15 -0.4250342167904203 4.218347926958896 3.626258160507561 1.7326988425445906 -9.38107954225686e-16 4.11800671518751e-16 0.0 0.0 -3.975693351829396e-16 -20.233925004796735 14.14137401798069 71.35913163689469 -35.445068193691455 -1.6591763033528456e-14 2.2887515884280673e-15 -2.782985346280577e-15 1.987846675914698e-16 4.827710013492361e-33 0.0 0.0 -3.975693351829396e-16 10.62239831902916 13.207719957348859 0.484682506833733 0.0 0.0 -3.975693351829396e-16 33.97512249870892 20.62632080121843 -79.01328753587322 66.74349988866017 -1.2310383152248746e-14 -7.125519509510872e-15 0.0 0.0 0.0 6.361109362927033e-15 -8.827812596100317e-32 -1.5902773407317582e-15 -1.10043487487663 10.779173374046852 1.5072952128634163 -0.8090839184348517 10.544547107250654 1.0961843438486705 0.0 0.0 -1.5902773407317582e-15
2500.0 5250.0 860.1061683281317 44.18801040950787 -9.420743716415691 -2.024869796606817 0.0 0.0 -3.975693351829396e-16 -0.5215501176702517 5.352596429970882 -0.03332776516577927 -1.2340682893609045 12.28964492038775 -1.627459180532116 0.0 0.0 0.0 0.0 0.0 -3.975693351829396e-16 -0.38632478422747135 3.942991092275714 3.6194435947564094 1.7808434727372644 6.204675232114176e-17 7.942703662116308e-16 0.0 0.0 0.0 -16.29446270032794 11.885052248371721 68.56196949074219 -38.668016020507174 3.5540449458809466e-15 1.8789731895542365e-15 -3.975693351829396e-16 -1.0345092886055059e-32 2.9817700138720468e-15 0.0 0.0 0.0 10.127689999665069 12.817998372001087 0.533212954723243 0.0 0.0 0.0 32.97200120640296 20.10329764245955 -77.80586210807405 67.66904342267027 -1.2367533032108536e-14 -7.025858547913846e-15 0.0 0.0 0.0 0.0 0.0 -3.975693351829396e-16 -1.0354945113598393 10.432492625116394 1.743435349719736 -0.750038810409963 10.77036747844278 0.932930481144908 0.0 0.0 -7.951386703658792e-16
2500.0 5250.0 860.1061683281317 44.23084178803404 -9.336056250278059 -1.8826035204726 0.0 0.0 3.975693351829396e-16 -0.5575432439886282 5.751739064390351 -0.043193187588339337 -1.1856304142352863 11.865388011752689 -1.5530945016690867 -5.517382872562698e-33 -1.5902773407317582e-15 -3.9756933518293955e-16 0.0 0.0 3.975693351829396e-16 -0.32398124615906604 3.329238538106423 3.6414005757930408 2.4560815611334883 -7.282301015420196e-16 8.109321490087657e-16 0.0 0.0 0.0 -10.713986106368036 12.31434374011646 66.43455892657174 -40.499407539380854 -1.161509078273372e-14 1.4755314378582977e-15 -9.93923337957349e-17 2.2414367919785963e-33 -2.5842006786891076e-15 0.0 0.0 0.0 9.244403883663768 13.480553899782876 0.1047870358727716 0.0 0.0 0.0 31.83531845740982 20.056067360408328 -77.84154007159854 67.79587569856078 -1.0559853214886467e-14 7.095375211257245e-15 3.1805546814635168e-15 4.4139062980501586e-32 1.5902773407317584e-15 0.0 0.0 3.975693351829396e-16 -1.041838218534946 10.561912252790476 1.7548887377791194 -0.7473641107935487 10.854005293537154 0.9107850163621979 0.0 0.0 0.0
